# xmcd CD database file
#
# Track frame offsets:
#	150
#	15687
#	46592
#	64410
#	82329
#	99747
#	123150
#	143420
#	159455
#
# Disc length: 2450 seconds
#
# Revision: 0
# Processed by: cddbd v1.5.1PL0 Copyright (c) Steve Scherf et al.
# Submitted via: CDex 1.51
#
DISCID=70099009
DTITLE=Dwight Edwards - Out of the Blue
DYEAR=1996
DGENRE=Blues
TTITLE0=Party On The Blues
TTITLE1=So Many Tears
TTITLE2=A Good Man Is Hard To Find
TTITLE3=Burning Log
TTITLE4=In-Laws and Out Laws
TTITLE5=I'm In Love With You
TTITLE6=Icon Of The Blues
TTITLE7=Snow Ball Love
TTITLE8=Something In My Eyes
EXTD=YEAR: 1996
EXTT0=
EXTT1=
EXTT2=
EXTT3=
EXTT4=
EXTT5=
EXTT6=
EXTT7=
EXTT8=
PLAYORDER=
